<mxfile host="app.diagrams.net" agent="Mozilla/5.0 (Windows NT 10.0; Win64; x64) AppleWebKit/537.36 (KHTML, like Gecko) Chrome/134.0.0.0 Safari/537.36 Edg/134.0.0.0" version="26.0.14">
  <diagram name="Page-1" id="yciT8Hi7HAosEdu2nFU1">
    <mxGraphModel dx="2462" dy="989" grid="1" gridSize="10" guides="1" tooltips="1" connect="1" arrows="1" fold="1" page="1" pageScale="1" pageWidth="850" pageHeight="1100" math="0" shadow="0">
      <root>
        <mxCell id="0" />
        <mxCell id="1" parent="0" />
        <mxCell id="IgOAduX1By8mEKTes4mL-27" value="Preprocessing" style="rounded=0;whiteSpace=wrap;html=1;fillColor=none;dashed=1;dashPattern=8 8;verticalAlign=top;" vertex="1" parent="1">
          <mxGeometry x="40" y="110" width="770" height="190" as="geometry" />
        </mxCell>
        <mxCell id="IgOAduX1By8mEKTes4mL-25" value="Retrieval" style="rounded=0;whiteSpace=wrap;html=1;fillColor=none;dashed=1;dashPattern=8 8;verticalAlign=top;" vertex="1" parent="1">
          <mxGeometry x="40" y="310" width="770" height="190" as="geometry" />
        </mxCell>
        <mxCell id="IgOAduX1By8mEKTes4mL-26" value="Generation" style="rounded=0;whiteSpace=wrap;html=1;fillColor=none;dashed=1;dashPattern=8 8;verticalAlign=top;shadow=0;" vertex="1" parent="1">
          <mxGeometry x="40" y="510" width="770" height="280" as="geometry" />
        </mxCell>
        <mxCell id="cOC47AbGKx0B0AlaGBn4-14" style="edgeStyle=orthogonalEdgeStyle;rounded=0;orthogonalLoop=1;jettySize=auto;html=1;entryX=0;entryY=0.5;entryDx=0;entryDy=0;" parent="1" source="cOC47AbGKx0B0AlaGBn4-1" target="cOC47AbGKx0B0AlaGBn4-2" edge="1">
          <mxGeometry relative="1" as="geometry" />
        </mxCell>
        <mxCell id="cOC47AbGKx0B0AlaGBn4-1" value="Knowledge base" style="rounded=1;whiteSpace=wrap;html=1;" parent="1" vertex="1">
          <mxGeometry x="60" y="140" width="120" height="60" as="geometry" />
        </mxCell>
        <mxCell id="cOC47AbGKx0B0AlaGBn4-15" style="edgeStyle=orthogonalEdgeStyle;rounded=0;orthogonalLoop=1;jettySize=auto;html=1;entryX=0;entryY=0.5;entryDx=0;entryDy=0;" parent="1" source="cOC47AbGKx0B0AlaGBn4-2" target="cOC47AbGKx0B0AlaGBn4-3" edge="1">
          <mxGeometry relative="1" as="geometry" />
        </mxCell>
        <mxCell id="cOC47AbGKx0B0AlaGBn4-2" value="Chunking" style="rounded=0;whiteSpace=wrap;html=1;fillColor=#d5e8d4;strokeColor=#82b366;" parent="1" vertex="1">
          <mxGeometry x="210" y="140" width="120" height="60" as="geometry" />
        </mxCell>
        <mxCell id="cOC47AbGKx0B0AlaGBn4-16" style="edgeStyle=orthogonalEdgeStyle;rounded=0;orthogonalLoop=1;jettySize=auto;html=1;entryX=0;entryY=0.5;entryDx=0;entryDy=0;" parent="1" source="cOC47AbGKx0B0AlaGBn4-3" target="cOC47AbGKx0B0AlaGBn4-4" edge="1">
          <mxGeometry relative="1" as="geometry" />
        </mxCell>
        <mxCell id="cOC47AbGKx0B0AlaGBn4-3" value="Chunks" style="rounded=1;whiteSpace=wrap;html=1;" parent="1" vertex="1">
          <mxGeometry x="360" y="140" width="120" height="60" as="geometry" />
        </mxCell>
        <mxCell id="cOC47AbGKx0B0AlaGBn4-12" style="edgeStyle=orthogonalEdgeStyle;rounded=0;orthogonalLoop=1;jettySize=auto;html=1;entryX=0;entryY=0.5;entryDx=0;entryDy=0;" parent="1" source="cOC47AbGKx0B0AlaGBn4-4" target="cOC47AbGKx0B0AlaGBn4-5" edge="1">
          <mxGeometry relative="1" as="geometry" />
        </mxCell>
        <mxCell id="cOC47AbGKx0B0AlaGBn4-4" value="Embedding&lt;div&gt;model&lt;/div&gt;" style="rounded=0;whiteSpace=wrap;html=1;fillColor=#d5e8d4;strokeColor=#82b366;" parent="1" vertex="1">
          <mxGeometry x="510" y="140" width="120" height="60" as="geometry" />
        </mxCell>
        <mxCell id="cOC47AbGKx0B0AlaGBn4-11" style="edgeStyle=orthogonalEdgeStyle;rounded=0;orthogonalLoop=1;jettySize=auto;html=1;entryX=0.5;entryY=0;entryDx=0;entryDy=0;exitX=0.5;exitY=1;exitDx=0;exitDy=0;" parent="1" source="cOC47AbGKx0B0AlaGBn4-5" target="cOC47AbGKx0B0AlaGBn4-6" edge="1">
          <mxGeometry relative="1" as="geometry" />
        </mxCell>
        <mxCell id="cOC47AbGKx0B0AlaGBn4-5" value="Vectors" style="rounded=1;whiteSpace=wrap;html=1;" parent="1" vertex="1">
          <mxGeometry x="660" y="140" width="120" height="60" as="geometry" />
        </mxCell>
        <mxCell id="IgOAduX1By8mEKTes4mL-2" style="edgeStyle=orthogonalEdgeStyle;rounded=0;orthogonalLoop=1;jettySize=auto;html=1;entryX=0.5;entryY=0;entryDx=0;entryDy=0;" edge="1" parent="1" source="cOC47AbGKx0B0AlaGBn4-6" target="IgOAduX1By8mEKTes4mL-1">
          <mxGeometry relative="1" as="geometry" />
        </mxCell>
        <mxCell id="cOC47AbGKx0B0AlaGBn4-6" value="Vector database" style="rounded=0;whiteSpace=wrap;html=1;fillColor=#d5e8d4;strokeColor=#82b366;" parent="1" vertex="1">
          <mxGeometry x="510" y="340" width="120" height="60" as="geometry" />
        </mxCell>
        <mxCell id="IgOAduX1By8mEKTes4mL-7" style="edgeStyle=orthogonalEdgeStyle;rounded=0;orthogonalLoop=1;jettySize=auto;html=1;entryX=0;entryY=0.5;entryDx=0;entryDy=0;" edge="1" parent="1" source="cOC47AbGKx0B0AlaGBn4-7" target="IgOAduX1By8mEKTes4mL-6">
          <mxGeometry relative="1" as="geometry" />
        </mxCell>
        <mxCell id="cOC47AbGKx0B0AlaGBn4-7" value="Embedding model" style="rounded=0;whiteSpace=wrap;html=1;fillColor=#d5e8d4;strokeColor=#82b366;" parent="1" vertex="1">
          <mxGeometry x="210" y="340" width="120" height="60" as="geometry" />
        </mxCell>
        <mxCell id="IgOAduX1By8mEKTes4mL-37" style="edgeStyle=orthogonalEdgeStyle;rounded=0;orthogonalLoop=1;jettySize=auto;html=1;entryX=0;entryY=0.5;entryDx=0;entryDy=0;" edge="1" parent="1" source="cOC47AbGKx0B0AlaGBn4-8" target="cOC47AbGKx0B0AlaGBn4-7">
          <mxGeometry relative="1" as="geometry" />
        </mxCell>
        <mxCell id="IgOAduX1By8mEKTes4mL-38" style="edgeStyle=orthogonalEdgeStyle;rounded=0;orthogonalLoop=1;jettySize=auto;html=1;entryX=0;entryY=0.5;entryDx=0;entryDy=0;exitX=0.5;exitY=1;exitDx=0;exitDy=0;" edge="1" parent="1" source="cOC47AbGKx0B0AlaGBn4-8" target="IgOAduX1By8mEKTes4mL-3">
          <mxGeometry relative="1" as="geometry" />
        </mxCell>
        <mxCell id="cOC47AbGKx0B0AlaGBn4-8" value="User prompt" style="rounded=1;whiteSpace=wrap;html=1;" parent="1" vertex="1">
          <mxGeometry x="60" y="340" width="120" height="60" as="geometry" />
        </mxCell>
        <mxCell id="IgOAduX1By8mEKTes4mL-4" style="edgeStyle=orthogonalEdgeStyle;rounded=0;orthogonalLoop=1;jettySize=auto;html=1;entryX=1;entryY=0.5;entryDx=0;entryDy=0;exitX=0.5;exitY=1;exitDx=0;exitDy=0;" edge="1" parent="1" source="IgOAduX1By8mEKTes4mL-1" target="IgOAduX1By8mEKTes4mL-3">
          <mxGeometry relative="1" as="geometry" />
        </mxCell>
        <mxCell id="IgOAduX1By8mEKTes4mL-1" value="Top-K matching chunks" style="rounded=1;whiteSpace=wrap;html=1;" vertex="1" parent="1">
          <mxGeometry x="510" y="430" width="120" height="60" as="geometry" />
        </mxCell>
        <mxCell id="IgOAduX1By8mEKTes4mL-10" style="edgeStyle=orthogonalEdgeStyle;rounded=0;orthogonalLoop=1;jettySize=auto;html=1;entryX=0.5;entryY=0;entryDx=0;entryDy=0;" edge="1" parent="1" source="IgOAduX1By8mEKTes4mL-3" target="IgOAduX1By8mEKTes4mL-9">
          <mxGeometry relative="1" as="geometry" />
        </mxCell>
        <mxCell id="IgOAduX1By8mEKTes4mL-3" value="Combined&lt;div&gt;Prompt&lt;/div&gt;" style="rounded=1;whiteSpace=wrap;html=1;" vertex="1" parent="1">
          <mxGeometry x="370" y="540" width="120" height="60" as="geometry" />
        </mxCell>
        <mxCell id="IgOAduX1By8mEKTes4mL-8" style="edgeStyle=orthogonalEdgeStyle;rounded=0;orthogonalLoop=1;jettySize=auto;html=1;entryX=0;entryY=0.5;entryDx=0;entryDy=0;" edge="1" parent="1" source="IgOAduX1By8mEKTes4mL-6" target="cOC47AbGKx0B0AlaGBn4-6">
          <mxGeometry relative="1" as="geometry" />
        </mxCell>
        <mxCell id="IgOAduX1By8mEKTes4mL-6" value="Search Vector" style="rounded=1;whiteSpace=wrap;html=1;" vertex="1" parent="1">
          <mxGeometry x="360" y="340" width="120" height="60" as="geometry" />
        </mxCell>
        <mxCell id="IgOAduX1By8mEKTes4mL-12" style="edgeStyle=orthogonalEdgeStyle;rounded=0;orthogonalLoop=1;jettySize=auto;html=1;" edge="1" parent="1" source="IgOAduX1By8mEKTes4mL-9" target="IgOAduX1By8mEKTes4mL-11">
          <mxGeometry relative="1" as="geometry" />
        </mxCell>
        <mxCell id="IgOAduX1By8mEKTes4mL-9" value="LLM" style="rounded=0;whiteSpace=wrap;html=1;fillColor=#d5e8d4;strokeColor=#82b366;" vertex="1" parent="1">
          <mxGeometry x="370" y="630" width="120" height="60" as="geometry" />
        </mxCell>
        <mxCell id="IgOAduX1By8mEKTes4mL-11" value="Response" style="rounded=1;whiteSpace=wrap;html=1;" vertex="1" parent="1">
          <mxGeometry x="370" y="720" width="120" height="60" as="geometry" />
        </mxCell>
        <mxCell id="IgOAduX1By8mEKTes4mL-24" style="edgeStyle=orthogonalEdgeStyle;rounded=0;orthogonalLoop=1;jettySize=auto;html=1;entryX=1;entryY=0.5;entryDx=0;entryDy=0;curved=1;fillColor=#dae8fc;strokeColor=#6c8ebf;" edge="1" parent="1" source="IgOAduX1By8mEKTes4mL-13" target="IgOAduX1By8mEKTes4mL-9">
          <mxGeometry relative="1" as="geometry" />
        </mxCell>
        <mxCell id="IgOAduX1By8mEKTes4mL-13" value="Evaluate groundedness" style="text;html=1;align=center;verticalAlign=middle;whiteSpace=wrap;rounded=0;fontFamily=Ink Free;fontSize=14;fontColor=light-dark(#000a19, #7c92b6);fontStyle=1" vertex="1" parent="1">
          <mxGeometry x="600" y="610" width="110" height="30" as="geometry" />
        </mxCell>
        <mxCell id="IgOAduX1By8mEKTes4mL-23" style="edgeStyle=orthogonalEdgeStyle;rounded=0;orthogonalLoop=1;jettySize=auto;html=1;entryX=1;entryY=0.5;entryDx=0;entryDy=0;exitX=0.5;exitY=1;exitDx=0;exitDy=0;curved=1;fillColor=#dae8fc;strokeColor=#6c8ebf;" edge="1" parent="1" source="IgOAduX1By8mEKTes4mL-14" target="IgOAduX1By8mEKTes4mL-1">
          <mxGeometry relative="1" as="geometry" />
        </mxCell>
        <mxCell id="IgOAduX1By8mEKTes4mL-14" value="Evaluate search results" style="text;html=1;align=center;verticalAlign=middle;whiteSpace=wrap;rounded=0;fontFamily=Ink Free;fontSize=14;fontColor=light-dark(#000a19, #7c92b6);fontStyle=1" vertex="1" parent="1">
          <mxGeometry x="680" y="355" width="110" height="30" as="geometry" />
        </mxCell>
        <mxCell id="IgOAduX1By8mEKTes4mL-19" style="edgeStyle=orthogonalEdgeStyle;rounded=0;orthogonalLoop=1;jettySize=auto;html=1;entryX=0;entryY=0.75;entryDx=0;entryDy=0;curved=1;fillColor=#dae8fc;strokeColor=#6c8ebf;" edge="1" parent="1" source="IgOAduX1By8mEKTes4mL-15" target="cOC47AbGKx0B0AlaGBn4-4">
          <mxGeometry relative="1" as="geometry">
            <Array as="points">
              <mxPoint x="480" y="260" />
              <mxPoint x="480" y="185" />
            </Array>
          </mxGeometry>
        </mxCell>
        <mxCell id="IgOAduX1By8mEKTes4mL-15" value="Evaluate embedding quality" style="text;html=1;align=center;verticalAlign=middle;whiteSpace=wrap;rounded=0;fontFamily=Ink Free;fontSize=14;fontColor=light-dark(#000a19, #7c92b6);fontStyle=1" vertex="1" parent="1">
          <mxGeometry x="280" y="245" width="110" height="30" as="geometry" />
        </mxCell>
        <mxCell id="IgOAduX1By8mEKTes4mL-18" style="edgeStyle=orthogonalEdgeStyle;rounded=0;orthogonalLoop=1;jettySize=auto;html=1;entryX=0.5;entryY=0;entryDx=0;entryDy=0;curved=1;fillColor=#dae8fc;strokeColor=#6c8ebf;" edge="1" parent="1" target="cOC47AbGKx0B0AlaGBn4-2">
          <mxGeometry relative="1" as="geometry">
            <mxPoint x="330" y="90" as="sourcePoint" />
          </mxGeometry>
        </mxCell>
        <mxCell id="IgOAduX1By8mEKTes4mL-16" value="Evaluate chunking quality" style="text;html=1;align=center;verticalAlign=middle;whiteSpace=wrap;rounded=0;fontFamily=Ink Free;fontSize=14;fontColor=light-dark(#000a19, #7c92b6);labelBorderColor=none;fontStyle=1" vertex="1" parent="1">
          <mxGeometry x="285" y="50" width="110" height="30" as="geometry" />
        </mxCell>
        <mxCell id="IgOAduX1By8mEKTes4mL-20" style="edgeStyle=orthogonalEdgeStyle;rounded=0;orthogonalLoop=1;jettySize=auto;html=1;entryX=0.548;entryY=0.005;entryDx=0;entryDy=0;entryPerimeter=0;curved=1;fillColor=#dae8fc;strokeColor=#6c8ebf;" edge="1" parent="1" source="IgOAduX1By8mEKTes4mL-15" target="cOC47AbGKx0B0AlaGBn4-7">
          <mxGeometry relative="1" as="geometry" />
        </mxCell>
      </root>
    </mxGraphModel>
  </diagram>
</mxfile>
